<svg version="1.1" id="Layer_1" xmlns="http://www.w3.org/2000/svg" xmlns:xlink="http://www.w3.org/1999/xlink" x="0px" y="0px"
	 width="100%" viewBox="500 500 500 500" xml:space="preserve">
       <g transform="scale(3)">

<path fill="#F1EDE9" opacity="1.000000" stroke="none" 
	d="
M249.872284,272.202850 
	C250.320114,272.157349 250.767960,272.111847 251.818436,271.982361 
	C252.913589,271.129211 253.667694,270.420074 253.860046,269.582062 
	C257.809631,252.374374 267.091736,238.530197 280.401001,227.187607 
	C284.563721,223.639999 289.035522,220.355682 292.666931,216.321655 
	C294.805298,213.946228 295.570312,210.334518 296.952972,207.278824 
	C303.944275,201.136963 308.348511,193.475769 310.163513,184.169037 
	C311.642212,192.110992 310.580780,199.492798 308.088715,206.870224 
	C303.766144,219.666733 294.709686,228.020844 283.623077,234.932037 
	C271.016693,242.790649 261.144501,253.114655 258.088654,268.260803 
	C256.630463,275.488312 256.345642,282.945129 255.187653,290.243835 
	C254.628586,293.767426 253.279663,297.165741 252.288376,300.620758 
	C251.455963,300.645721 250.623550,300.670685 249.791138,300.695618 
	C248.484619,297.014771 246.665756,293.426147 245.982941,289.633026 
	C244.731400,282.680634 244.296173,275.585815 243.255661,268.589813 
	C241.673462,257.951813 236.433502,249.281830 228.076538,242.636688 
	C221.625000,237.506668 214.569992,233.109497 208.313187,227.766037 
	C195.120422,216.499100 189.247772,202.097610 191.830460,184.391525 
	C193.237549,194.101654 198.301788,201.602249 205.315918,208.430801 
	C206.579803,211.470871 207.360580,214.491440 209.252304,216.425278 
	C213.660019,220.931168 218.558823,224.964371 223.336807,229.098816 
	C235.249359,239.406876 243.740646,251.781937 247.082611,267.424103 
	C247.448669,269.137482 248.915817,270.615601 249.872284,272.202850 
z"/>
<path fill="#D4AE7D" opacity="1.000000" stroke="none" 
	d="
M229.387695,187.457764 
	C250.414902,181.723938 270.126556,183.803085 288.671875,194.778336 
	C291.049500,196.185410 293.163574,198.037720 295.379486,199.668869 
	C291.369812,205.664108 278.959564,209.185822 273.085419,206.647842 
	C258.286407,200.253784 243.296753,200.423813 228.592224,206.730148 
	C224.504471,208.483292 221.182312,208.848541 217.379333,206.719284 
	C213.665329,204.639862 209.825150,202.785812 205.514252,200.561325 
	C212.836456,194.141068 220.645035,190.372787 229.387695,187.457764 
z"/>
<path fill="#D4AE7D" opacity="1.000000" stroke="none" 
	d="
M180.380035,264.818695 
	C177.534103,248.072739 180.536087,232.536804 189.347015,217.770599 
	C193.413528,223.114090 197.088608,227.696045 200.406601,232.523422 
	C201.028732,233.428558 200.428696,235.372986 200.043777,236.739548 
	C196.924728,247.812729 196.644989,258.970520 198.553223,270.909271 
	C195.068085,271.427582 191.577530,272.005798 188.747070,270.897797 
	C185.640823,269.681824 183.142975,266.911652 180.380035,264.818695 
z"/>
<path fill="#EDC697" opacity="1.000000" stroke="none" 
	d="
M180.368134,265.186157 
	C183.142975,266.911652 185.640823,269.681824 188.747070,270.897797 
	C191.577530,272.005798 195.068085,271.427582 198.493530,271.340210 
	C202.267761,283.975006 207.208679,296.230286 215.915985,306.569336 
	C219.972168,311.385620 224.557999,315.755859 228.905487,320.326721 
	C223.714737,321.701782 210.630371,313.938934 199.559235,303.231049 
	C190.751495,294.712250 185.582672,284.206635 182.081116,272.154724 
	C182.052689,271.397064 181.949524,271.232269 181.765442,271.118164 
	C181.295715,269.263306 180.825989,267.408447 180.368134,265.186157 
z"/>
<path fill="#D4AE7D" opacity="1.000000" stroke="none" 
	d="
M304.282166,262.100586 
	C304.246277,261.319580 304.210419,260.538544 304.602081,259.261597 
	C304.802673,256.841949 304.575745,254.918274 304.348846,252.994598 
	C304.275848,251.899063 304.202881,250.803528 304.403259,249.043961 
	C304.207184,244.698792 303.526031,241.027206 303.359436,237.332413 
	C303.278687,235.541199 303.844543,233.539124 304.689880,231.933853 
	C305.748413,229.923767 307.415009,228.238205 308.783691,226.386368 
	C312.195221,221.770615 313.162872,221.762680 315.506622,227.164932 
	C317.717590,232.261230 319.441895,237.568695 321.380280,242.783264 
	C321.574219,244.232178 321.768127,245.681107 321.680511,247.873886 
	C321.576965,251.742722 321.755005,254.867676 321.933044,257.992645 
	C321.929291,258.755707 321.925537,259.518738 321.553680,260.865417 
	C319.813202,264.233429 318.440857,267.017853 316.695496,269.884705 
	C312.216827,270.942535 308.111145,271.917908 304.002075,272.579407 
	C303.707001,271.519318 303.415375,270.773132 303.123779,270.026917 
	C303.124268,269.569427 303.124756,269.111908 303.557251,268.219543 
	C304.086884,265.889984 304.184509,263.995300 304.282166,262.100586 
z"/>
<path fill="#D1AF85" opacity="1.000000" stroke="none" 
	d="
M296.635437,207.341339 
	C295.570312,210.334518 294.805298,213.946228 292.666931,216.321655 
	C289.035522,220.355682 284.563721,223.639999 280.401001,227.187607 
	C267.091736,238.530197 257.809631,252.374374 253.860046,269.582062 
	C253.667694,270.420074 252.913589,271.129211 252.033478,271.892639 
	C252.455719,264.507568 252.634308,256.990845 254.203949,249.776825 
	C257.702698,233.696716 269.205933,224.172424 282.826019,216.514679 
	C287.540527,213.864014 291.832794,210.462448 296.635437,207.341339 
z"/>
<path fill="#D1AF85" opacity="1.000000" stroke="none" 
	d="
M249.989716,271.729492 
	C248.915817,270.615601 247.448669,269.137482 247.082611,267.424103 
	C243.740646,251.781937 235.249359,239.406876 223.336807,229.098816 
	C218.558823,224.964371 213.660019,220.931168 209.252304,216.425278 
	C207.360580,214.491440 206.579803,211.470871 205.515457,208.705933 
	C213.198471,213.084290 220.747604,217.566360 228.104019,222.345123 
	C243.610260,232.418015 249.222824,247.674103 250.138916,265.278168 
	C250.242310,267.264893 250.123138,269.263184 249.989716,271.729492 
z"/>
<path fill="#EDC697" opacity="1.000000" stroke="none" 
	d="
M304.005493,272.893311 
	C308.111145,271.917908 312.216827,270.942535 316.830444,270.251221 
	C317.530701,271.641052 318.215729,272.968719 317.834198,273.816162 
	C315.569336,278.846832 313.058350,283.766724 310.628357,288.723022 
	C308.891724,292.265228 307.152435,295.806152 305.414337,299.347687 
	C305.414337,299.347687 305.310272,299.305908 304.973328,299.291840 
	C299.063904,304.315674 293.491425,309.353607 287.918976,314.391510 
	C287.765320,314.518127 287.611633,314.644714 286.803101,314.866760 
	C284.624756,315.267609 283.101257,315.572998 281.577789,315.878357 
	C281.323700,315.449860 281.069641,315.021332 280.815582,314.592834 
	C283.098969,312.732086 286.127075,311.311066 287.532043,308.931671 
	C292.609863,300.332001 297.326111,291.500793 301.741608,282.541534 
	C302.758972,280.477295 302.039062,277.556854 302.118591,275.030426 
	C302.146240,274.576111 302.173859,274.121826 302.617340,273.370331 
	C303.356079,273.006592 303.680176,272.946655 304.005493,272.893311 
z"/>
<path fill="#C29C73" opacity="1.000000" stroke="none" 
	d="
M279.001282,266.995331 
	C281.006012,263.241882 283.537537,259.661896 284.848328,255.679993 
	C285.892395,252.508331 284.888763,248.679626 285.850922,245.458206 
	C286.534698,243.168640 288.976837,241.404251 290.634186,239.405472 
	C291.818115,240.643997 293.799500,241.744919 294.041290,243.146027 
	C294.874481,247.974258 295.100220,252.907333 295.117981,258.427277 
	C290.287598,263.349091 286.162598,268.169281 279.001282,266.995331 
z"/>
<path fill="#C29C73" opacity="1.000000" stroke="none" 
	d="
M206.791931,259.116455 
	C205.214630,252.172470 205.687119,245.551208 209.598618,239.216080 
	C213.854004,240.649078 216.342102,242.537201 215.803375,247.426498 
	C214.998886,254.727478 217.877228,260.973907 222.472290,266.760986 
	C220.206589,266.933380 217.805023,267.326782 216.224365,266.367523 
	C212.854492,264.322449 209.910461,261.575684 206.791931,259.116455 
z"/>
<path fill="#EDC697" opacity="1.000000" stroke="none" 
	d="
M278.672363,267.097778 
	C286.162598,268.169281 290.287598,263.349091 294.803741,258.835297 
	C293.004852,268.895630 287.383942,275.612854 275.574646,277.962250 
	C271.799408,278.713318 267.748749,278.079803 262.731110,278.079803 
	C268.705078,273.916809 273.524261,270.558533 278.672363,267.097778 
z"/>
<path fill="#EDC697" opacity="1.000000" stroke="none" 
	d="
M206.760773,259.456665 
	C209.910461,261.575684 212.854492,264.322449 216.224365,266.367523 
	C217.805023,267.326782 220.206589,266.933380 222.581390,267.087982 
	C227.736038,270.396118 232.545441,273.769196 237.297821,277.102325 
	C227.266281,283.314392 211.051453,274.234344 206.760773,259.456665 
z"/>
<path fill="#D1AF85" opacity="1.000000" stroke="none" 
	d="
M301.899963,275.313354 
	C302.039062,277.556854 302.758972,280.477295 301.741608,282.541534 
	C297.326111,291.500793 292.609863,300.332001 287.532043,308.931671 
	C286.127075,311.311066 283.098969,312.732086 280.815582,314.592834 
	C281.069641,315.021332 281.323700,315.449860 281.577789,315.878357 
	C283.101257,315.572998 284.624756,315.267609 286.518921,314.958649 
	C281.982086,317.436890 277.074585,319.918732 272.167084,322.400574 
	C271.719879,321.793854 271.272705,321.187164 270.825500,320.580475 
	C286.623108,309.232269 296.223145,293.784241 301.899963,275.313354 
z"/>
<path fill="#D1AF85" opacity="1.000000" stroke="none" 
	d="
M321.369263,242.414764 
	C319.441895,237.568695 317.717590,232.261230 315.506622,227.164932 
	C313.162872,221.762680 312.195221,221.770615 308.783691,226.386368 
	C307.415009,228.238205 305.748413,229.923767 304.689880,231.933853 
	C303.844543,233.539124 303.278687,235.541199 303.359436,237.332413 
	C303.526031,241.027206 304.207184,244.698792 304.469360,248.635056 
	C303.227753,244.577606 302.170288,240.270355 301.177551,235.948212 
	C300.966797,235.030762 300.559814,233.758698 300.976288,233.159515 
	C304.593292,227.955551 308.377625,222.867889 312.436096,217.301315 
	C316.564606,225.214279 320.232910,233.141525 321.369263,242.414764 
z"/>
<path fill="#D1AF85" opacity="1.000000" stroke="none" 
	d="
M305.709747,299.200195 
	C307.152435,295.806152 308.891724,292.265228 310.628357,288.723022 
	C313.058350,283.766724 315.569336,278.846832 317.834198,273.816162 
	C318.215729,272.968719 317.530701,271.641052 317.203491,270.168762 
	C318.440857,267.017853 319.813202,264.233429 321.476288,261.239197 
	C320.580719,275.389984 315.174438,288.001312 305.709747,299.200195 
z"/>
<path fill="#D1AF85" opacity="1.000000" stroke="none" 
	d="
M288.231018,314.318268 
	C293.491425,309.353607 299.063904,304.315674 304.996887,299.342712 
	C299.752625,304.353455 294.147827,309.299225 288.231018,314.318268 
z"/>
<path fill="#D1AF85" opacity="1.000000" stroke="none" 
	d="
M322.154724,257.669922 
	C321.755005,254.867676 321.576965,251.742722 321.659912,248.317841 
	C322.072723,251.127701 322.224579,254.237473 322.154724,257.669922 
z"/>
<path fill="#D1AF85" opacity="1.000000" stroke="none" 
	d="
M304.142303,262.437988 
	C304.184509,263.995300 304.086884,265.889984 303.667542,267.894287 
	C303.564697,266.261047 303.783569,264.518219 304.142303,262.437988 
z"/>
<path fill="#D1AF85" opacity="1.000000" stroke="none" 
	d="
M304.265656,253.418213 
	C304.575745,254.918274 304.802673,256.841949 304.708282,258.883057 
	C304.318817,257.280914 304.250641,255.561356 304.265656,253.418213 
z"/>
<path fill="#D1AF85" opacity="1.000000" stroke="none" 
	d="
M304.002075,272.579407 
	C303.680176,272.946655 303.356079,273.006592 302.786224,273.072876 
	C302.583130,272.211884 302.627014,271.351166 302.897339,270.258667 
	C303.415375,270.773132 303.707001,271.519318 304.002075,272.579407 
z"/>
<path fill="#D4AE7D" opacity="1.000000" stroke="none" 
	d="
M181.663849,271.265045 
	C181.949524,271.232269 182.052689,271.397064 182.051758,271.760559 
	C181.765778,271.843781 181.610352,271.678192 181.663849,271.265045 
z"/>
</g>
</svg>