<svg version="1.1" id="Layer_1" xmlns="http://www.w3.org/2000/svg" xmlns:xlink="http://www.w3.org/1999/xlink" x="0px" y="0px"
	 width="100%" viewBox="0 0 1024 1024" enable-background="new 0 0 1024 1024" xml:space="preserve">
<path fill="#000000" opacity="1.000000" stroke="none" 
	d="
M675.000000,1025.000000 
	C450.000000,1025.000000 225.500000,1025.000000 1.000000,1025.000000 
	C1.000000,683.666687 1.000000,342.333344 1.000000,1.000000 
	C342.333344,1.000000 683.666687,1.000000 1025.000000,1.000000 
	C1025.000000,342.333344 1025.000000,683.666687 1025.000000,1025.000000 
	C908.500000,1025.000000 792.000000,1025.000000 675.000000,1025.000000 
M689.683105,759.050354 
	C690.169739,758.731445 690.656433,758.412476 691.041626,758.077759 
	C691.041626,758.077759 691.048218,758.180237 691.797424,758.070007 
	C694.924683,756.422363 698.051941,754.774658 701.078552,753.103821 
	C701.078552,753.103821 701.089355,753.206482 701.711182,753.043335 
	C702.540649,752.412170 703.370117,751.781006 704.090759,751.095093 
	C704.090759,751.095093 704.144653,751.204285 704.696960,751.059204 
	C705.129761,750.704651 705.562561,750.350098 706.650879,749.820312 
	C711.664246,745.495911 717.079895,741.551758 721.604980,736.765686 
	C730.278015,727.592346 737.298279,717.449341 735.975891,703.043213 
	C735.444336,701.594360 735.204956,699.930725 734.326904,698.736694 
	C731.622620,695.059326 728.674316,691.561340 726.551270,687.883240 
	C727.054749,686.055115 727.558167,684.226990 728.081482,682.326721 
	C728.208679,682.317688 728.736267,682.161316 728.820312,682.291504 
	C731.919312,687.089478 736.469482,686.173157 739.948792,683.877197 
	C742.375061,682.276123 743.429688,678.540466 744.989990,675.699463 
	C746.363708,673.198120 747.005615,669.891785 749.032349,668.257629 
	C751.376160,666.367615 755.168518,666.380981 757.817383,664.738220 
	C762.146973,662.053040 765.408936,662.926392 768.895569,666.123840 
	C769.593811,666.764099 771.667236,665.904663 773.699524,666.101562 
	C775.254639,665.522949 777.363403,665.403320 778.281128,664.296326 
	C790.600098,649.436035 802.988708,634.622742 814.892517,619.431458 
	C833.427856,595.777283 849.777649,570.766541 860.901794,542.624146 
	C869.093750,521.899719 873.662537,500.621735 870.807068,478.278717 
	C867.821655,454.919373 859.289490,433.556549 845.911011,414.255463 
	C813.466858,367.448334 776.102844,324.732086 736.052917,284.383453 
	C702.591858,250.672897 667.362915,218.913483 629.159973,190.518066 
	C603.230774,171.245422 575.101318,156.732162 543.230591,147.857162 
	C539.502319,147.270630 535.773987,146.684097 531.609192,145.985260 
	C531.609192,145.985260 531.159546,145.953812 530.683716,145.330521 
	C507.686096,139.879990 486.227783,145.991852 464.299988,154.128479 
	C461.675873,155.178085 459.053558,156.232239 456.427368,157.276581 
	C421.225861,171.275009 391.951508,194.434509 363.327942,218.352600 
	C327.261993,248.489639 293.125336,280.684967 261.524994,315.588348 
	C234.338974,345.615967 208.285965,376.492432 184.905594,409.590515 
	C172.315735,427.413239 162.240295,446.364288 157.946228,468.844543 
	C153.135300,489.843689 154.155060,510.542603 161.228210,531.664734 
	C167.253036,550.684570 176.363373,568.234558 187.280853,584.815002 
	C211.422958,621.479797 239.070938,655.408081 269.107971,687.359131 
	C279.226135,698.122070 290.382080,707.909363 301.298370,718.367432 
	C303.998657,712.483459 306.342072,707.377136 308.871674,703.016907 
	C312.051392,707.049622 310.689758,698.811401 314.079468,702.587585 
	C314.539734,703.987671 321.133850,704.935242 315.437500,709.861206 
	C319.583801,710.902893 321.905121,714.134155 326.469910,715.133057 
	C330.341064,715.980164 336.472626,719.464722 337.181702,726.261841 
	C337.586487,730.142029 339.825867,730.462280 342.785156,727.925232 
	C344.724823,726.262451 346.840820,724.805237 349.146179,723.051880 
	C349.693115,724.312988 350.118500,725.293823 350.554352,726.298767 
	C354.859314,722.787476 355.927338,723.186584 357.115814,728.570801 
	C357.327454,729.529724 357.810150,730.428772 358.090729,732.068176 
	C351.996460,746.097717 345.831207,760.097046 339.833862,774.167908 
	C336.083130,782.967896 337.616669,789.193359 344.913147,795.311951 
	C350.007416,799.583801 354.887482,804.289429 360.538116,807.674927 
	C367.828888,812.043152 375.462799,816.444458 383.542786,818.752197 
	C396.722565,822.516418 410.363373,820.818542 423.401154,817.265808 
	C431.865997,814.959167 440.875977,812.204529 447.764252,807.111328 
	C459.283234,798.594360 467.974335,786.910278 474.658661,774.125244 
	C477.552948,768.589478 477.332947,762.407166 473.490875,757.123413 
	C461.298676,740.356201 448.929443,723.717834 436.638916,707.022095 
	C430.189545,698.261108 423.761536,689.484436 416.781128,679.975525 
	C419.541046,679.554932 421.140289,679.134155 422.749359,679.092285 
	C450.393341,678.373474 478.037048,677.631287 505.684235,677.057495 
	C515.323181,676.857483 515.644836,677.374451 515.992920,687.272644 
	C516.004639,687.605530 515.996643,687.939148 515.998596,688.272400 
	C516.100159,705.598755 516.226074,722.925110 516.290894,740.251587 
	C516.315369,746.786926 519.856934,751.057861 525.372437,750.991821 
	C530.819153,750.926575 534.497375,746.619141 534.497559,740.245422 
	C534.498291,719.582336 534.637878,698.917175 534.354065,678.257874 
	C534.291870,673.732483 535.783325,671.141174 539.721924,669.408386 
	C546.356384,666.489563 552.902405,663.370056 559.528015,660.430420 
	C583.456360,649.813599 607.399902,639.230957 631.352966,628.670044 
	C632.100037,628.340698 633.014099,628.390076 633.437622,628.325684 
	C625.403137,649.356262 617.190552,670.141479 609.557129,691.137207 
	C605.800903,701.468323 603.116760,712.189148 599.320984,723.081665 
	C598.810486,724.542480 597.422913,726.559326 597.937195,727.370544 
	C600.537537,731.472534 603.086243,735.877319 606.657532,739.042542 
	C616.899353,748.119629 627.225586,757.285278 641.792114,761.093628 
	C650.450195,762.031616 659.110168,763.687378 667.765625,763.664062 
	C673.891052,763.647522 680.010315,761.358826 686.036926,760.066589 
	C686.036926,760.066589 686.038452,760.163635 686.742554,760.064270 
	C687.541199,759.739990 688.339844,759.415710 689.045166,759.073792 
	C689.045166,759.073792 689.049805,759.168640 689.683105,759.050354 
M506.150330,829.974243 
	C503.448975,829.715820 500.747650,829.457336 497.232574,829.001282 
	C487.485718,826.342651 477.687439,823.854431 468.018585,820.937195 
	C464.416412,819.850403 461.678070,819.849854 458.271698,821.980286 
	C451.533966,826.194458 444.363007,829.735229 437.261566,833.338440 
	C434.599579,834.689087 431.632721,835.438904 428.039551,836.739624 
	C443.936829,849.090027 459.578522,859.901062 477.357117,867.429382 
	C494.031128,874.489990 511.223389,876.964722 529.062988,873.961304 
	C544.531921,871.356934 558.548096,864.896179 571.847961,856.785583 
	C600.086853,839.565002 625.575439,818.660950 650.955444,797.616455 
	C653.434448,795.560913 655.788269,793.354248 658.582153,790.879395 
	C649.201172,788.778198 640.722229,786.701172 632.157043,785.079346 
	C629.868591,784.645935 626.938110,784.922546 624.944763,786.029663 
	C607.072449,795.956482 589.766785,807.010925 571.421814,815.941162 
	C559.487549,821.750671 546.101562,824.578125 532.378418,828.686707 
	C527.268188,829.152100 522.157959,829.617493 516.138672,829.952087 
	C513.078552,829.994507 510.018402,830.036865 506.150330,829.974243 
z"/>
<path fill="#47378F" opacity="1.000000" stroke="none" 
	d="
M308.685486,702.270813 
	C306.342072,707.377136 303.998657,712.483459 301.298370,718.367432 
	C290.382080,707.909363 279.226135,698.122070 269.107971,687.359131 
	C239.070938,655.408081 211.422958,621.479797 187.280853,584.815002 
	C176.363373,568.234558 167.253036,550.684570 161.435486,531.041626 
	C161.444443,528.828552 161.465622,527.173157 161.013840,525.658813 
	C156.500702,510.531647 155.971542,495.163727 157.833267,479.587067 
	C158.287460,475.786804 158.049210,471.903778 158.129333,468.058807 
	C162.240295,446.364288 172.315735,427.413239 184.905594,409.590515 
	C208.285965,376.492432 234.338974,345.615967 261.524994,315.588348 
	C293.125336,280.684967 327.261993,248.489639 363.327942,218.352600 
	C391.951508,194.434509 421.225861,171.275009 456.427368,157.276581 
	C459.053558,156.232239 461.675873,155.178085 464.896942,154.357758 
	C470.348175,153.216766 475.156830,151.647705 480.066925,150.520691 
	C488.391449,148.609985 496.710876,146.190567 505.160919,145.448975 
	C513.746216,144.695511 522.486877,145.712280 531.159546,145.953827 
	C531.159546,145.953812 531.609192,145.985260 532.080322,146.300873 
	C536.353088,147.112671 540.154846,147.608871 543.956543,148.105057 
	C575.101318,156.732162 603.230774,171.245422 629.159973,190.518066 
	C667.362915,218.913483 702.591858,250.672897 736.052917,284.383453 
	C776.102844,324.732086 813.466858,367.448334 845.911011,414.255463 
	C859.289490,433.556549 867.821655,454.919373 870.807068,478.278717 
	C873.662537,500.621735 869.093750,521.899719 860.901794,542.624146 
	C849.777649,570.766541 833.427856,595.777283 814.892517,619.431458 
	C802.988708,634.622742 790.600098,649.436035 778.281128,664.296326 
	C777.363403,665.403320 775.254639,665.522949 773.284424,665.612793 
	C763.726929,651.823730 754.256958,638.734497 745.518372,625.174011 
	C732.087524,604.332031 720.970459,582.561096 721.559631,556.715820 
	C721.890442,542.203125 725.219482,528.516663 734.520813,517.243713 
	C741.156555,509.201324 749.252869,502.374023 756.586365,494.895538 
	C780.490295,470.519165 790.543152,441.135712 784.673706,407.679535 
	C779.759827,379.669830 761.618347,358.239197 731.873047,352.673737 
	C726.319519,351.634644 724.015442,349.093231 721.928467,344.698944 
	C712.979797,325.856995 700.709656,309.372345 686.088257,294.549561 
	C664.424805,272.587708 639.980103,254.267609 613.318298,238.875397 
	C586.349243,223.305786 558.144714,210.960358 526.820557,206.397141 
	C526.170837,205.706482 525.632751,205.112625 525.088867,205.107300 
	C517.280518,205.030777 509.470551,204.979630 501.663483,205.092850 
	C500.794098,205.105469 499.939850,206.161545 498.661255,206.846146 
	C484.119415,210.567001 469.582855,213.042297 455.949188,218.000412 
	C417.986298,231.806259 384.620972,253.638214 354.025421,279.750366 
	C332.424408,298.186035 313.231873,318.556458 303.712219,346.235718 
	C303.292603,347.455811 301.079163,348.766296 299.653564,348.822418 
	C286.993530,349.320770 276.512115,354.906097 267.461304,363.081635 
	C250.924576,378.019073 242.518005,397.203888 239.357941,419.176331 
	C236.903030,427.304443 237.770813,435.182068 240.053268,442.996460 
	C240.016891,443.000519 240.061218,442.942230 240.043762,443.354248 
	C240.787903,446.164124 241.549469,448.561981 242.515259,451.160217 
	C242.792496,451.917542 242.865524,452.474457 242.680466,453.255005 
	C243.311813,455.979645 244.201248,458.480560 245.051727,460.982361 
	C245.012787,460.983215 245.068604,460.928833 245.052689,461.297791 
	C245.774292,462.857880 246.511826,464.049011 247.500916,465.446228 
	C250.286530,469.934692 252.445129,474.498962 255.415039,478.454010 
	C276.061676,505.949066 303.804779,522.348083 337.460144,527.524658 
	C348.846100,529.275940 356.621399,532.698181 360.340973,543.674438 
	C360.498108,544.138062 360.761932,544.565552 360.813690,545.112305 
	C360.826355,545.450623 361.001404,545.686584 361.147888,545.948120 
	C361.119293,545.973755 361.080933,545.907288 361.060425,546.311340 
	C364.179321,554.731445 363.357117,562.832520 361.516418,570.940430 
	C360.066437,577.327332 358.548981,583.698975 357.054565,590.040161 
	C357.047638,590.002869 357.122345,590.015442 356.830902,590.206116 
	C356.379486,591.290527 356.219513,592.184326 356.054993,593.040527 
	C356.050507,593.003052 356.125214,593.014587 355.831421,593.203369 
	C355.377655,594.288696 355.217682,595.185242 355.061707,596.044006 
	C355.065704,596.006226 355.136719,596.033264 354.803772,596.158691 
	C353.944031,598.505737 353.417236,600.727356 352.844910,603.311523 
	C346.841827,617.006470 340.889954,630.341248 334.925385,643.670349 
	C326.183533,663.205933 317.432556,682.737549 308.685486,702.270813 
z"/>
<path fill="#060606" opacity="1.000000" stroke="none" 
	d="
M360.976074,545.009888 
	C360.761932,544.565552 360.498108,544.138062 360.340973,543.674438 
	C356.621399,532.698181 348.846100,529.275940 337.460144,527.524658 
	C303.804779,522.348083 276.061676,505.949066 255.415039,478.454010 
	C252.445129,474.498962 250.286530,469.934692 247.449387,465.072266 
	C246.453735,463.304382 245.761169,462.116608 245.068604,460.928833 
	C245.068604,460.928833 245.012787,460.983215 245.123230,460.596405 
	C244.468613,457.816833 243.703583,455.424103 242.938553,453.031342 
	C242.865524,452.474457 242.792496,451.917542 242.446854,450.767212 
	C241.469910,447.763275 240.765564,445.352753 240.061218,442.942230 
	C240.061218,442.942230 240.016891,443.000519 240.175293,442.544373 
	C240.130798,434.413086 239.927887,426.737976 239.724976,419.062836 
	C242.518005,397.203888 250.924576,378.019073 267.461304,363.081635 
	C276.512115,354.906097 286.993530,349.320770 299.653564,348.822418 
	C301.079163,348.766296 303.292603,347.455811 303.712219,346.235718 
	C313.231873,318.556458 332.424408,298.186035 354.025421,279.750366 
	C384.620972,253.638214 417.986298,231.806259 455.949188,218.000412 
	C469.582855,213.042297 484.119415,210.567001 499.069031,206.847656 
	C508.905914,206.747025 517.917664,206.757324 526.929443,206.767609 
	C558.144714,210.960358 586.349243,223.305786 613.318298,238.875397 
	C639.980103,254.267609 664.424805,272.587708 686.088257,294.549561 
	C700.709656,309.372345 712.979797,325.856995 721.928467,344.698944 
	C724.015442,349.093231 726.319519,351.634644 731.873047,352.673737 
	C761.618347,358.239197 779.759827,379.669830 784.673706,407.679535 
	C790.543152,441.135712 780.490295,470.519165 756.586365,494.895538 
	C749.252869,502.374023 741.156555,509.201324 734.520813,517.243713 
	C725.219482,528.516663 721.890442,542.203125 721.559631,556.715820 
	C720.970459,582.561096 732.087524,604.332031 745.518372,625.174011 
	C754.256958,638.734497 763.726929,651.823730 772.987915,665.430359 
	C771.667236,665.904663 769.593811,666.764099 768.895569,666.123840 
	C765.408936,662.926392 762.146973,662.053040 757.817383,664.738220 
	C755.168518,666.380981 751.376160,666.367615 749.032349,668.257629 
	C747.005615,669.891785 746.363708,673.198120 744.989990,675.699463 
	C743.429688,678.540466 742.375061,682.276123 739.948792,683.877197 
	C736.469482,686.173157 731.919312,687.089478 728.820312,682.291504 
	C728.736267,682.161316 728.208679,682.317688 728.081482,682.326721 
	C727.558167,684.226990 727.054749,686.055115 725.880371,687.816223 
	C711.545593,671.242065 697.855957,654.756226 684.227478,638.219971 
	C675.995667,628.231750 667.803040,618.210022 659.701660,608.115967 
	C655.339600,602.680969 649.618164,601.768005 643.555969,603.576477 
	C633.333862,606.625793 622.948303,609.484924 613.220581,613.763550 
	C588.054810,624.832458 563.174072,636.554077 538.251648,648.169983 
	C523.676575,654.963135 508.771027,658.377441 492.372986,658.323486 
	C462.109192,658.223938 431.841644,660.129272 401.569946,660.999939 
	C393.235474,661.239685 388.359528,664.587097 384.959900,672.658081 
	C376.614716,692.470520 367.170044,711.819824 358.167664,731.355469 
	C357.810150,730.428772 357.327454,729.529724 357.115814,728.570801 
	C355.927338,723.186584 354.859314,722.787476 350.554352,726.298767 
	C350.118500,725.293823 349.693115,724.312988 349.146179,723.051880 
	C346.840820,724.805237 344.724823,726.262451 342.785156,727.925232 
	C339.825867,730.462280 337.586487,730.142029 337.181702,726.261841 
	C336.472626,719.464722 330.341064,715.980164 326.469910,715.133057 
	C321.905121,714.134155 319.583801,710.902893 315.437500,709.861206 
	C321.133850,704.935242 314.539734,703.987671 314.079468,702.587585 
	C310.689758,698.811401 312.051392,707.049622 308.778564,702.643860 
	C317.432556,682.737549 326.183533,663.205933 334.925385,643.670349 
	C340.889954,630.341248 346.841827,617.006470 352.982025,602.977234 
	C353.822021,600.197937 354.479370,598.115601 355.136719,596.033264 
	C355.136719,596.033264 355.065704,596.006226 355.326233,595.830566 
	C355.766235,594.774780 355.945709,593.894714 356.125214,593.014587 
	C356.125214,593.014587 356.050507,593.003052 356.327545,592.835815 
	C356.777191,591.784180 356.949768,590.899841 357.122345,590.015442 
	C357.122345,590.015442 357.047638,590.002869 357.349548,589.831848 
	C359.722076,582.167725 362.231354,574.761353 363.736603,567.156372 
	C365.162781,559.950989 366.894226,552.359680 361.080933,545.907288 
	C361.080933,545.907288 361.119293,545.973755 361.148895,545.708801 
	C361.178497,545.443848 360.976074,545.009888 360.976074,545.009888 
M640.555481,293.950867 
	C632.681396,292.212677 624.884583,289.866852 616.918274,288.854553 
	C596.154358,286.215973 575.955627,288.424744 556.804932,297.550385 
	C542.375183,304.426422 529.035767,312.933258 517.216553,323.725616 
	C514.466797,326.236450 512.303650,326.726837 509.138184,323.967224 
	C504.655060,320.058868 499.605530,316.796082 494.767822,313.299194 
	C466.567291,292.914917 435.763000,283.507050 400.756653,289.894257 
	C371.074768,295.309967 349.710052,312.062042 335.155121,337.577728 
	C323.599457,357.835541 321.075989,379.991425 324.875275,403.013062 
	C329.549408,431.336121 342.168945,454.813751 365.383423,472.254211 
	C371.505981,476.853912 377.415131,481.873932 378.935730,490.028259 
	C380.390594,497.830017 381.835297,505.641357 382.967743,513.494141 
	C387.288635,543.457458 402.270691,567.505981 424.877625,586.755188 
	C448.111206,606.537903 475.102997,617.131287 505.998230,618.315430 
	C531.982483,619.311279 556.243042,614.548767 579.084534,602.053162 
	C620.043091,579.646423 642.284790,545.390625 644.952820,498.688354 
	C645.544983,488.324463 649.086609,480.298157 657.950012,473.873016 
	C665.798401,468.183563 672.920898,461.078247 679.067627,453.540924 
	C692.358765,437.242706 698.974548,418.080536 701.307861,397.190491 
	C703.713196,375.656128 701.056519,355.191803 690.004333,336.334564 
	C678.570984,316.827118 662.440796,302.514160 640.555481,293.950867 
M294.589569,458.864899 
	C293.891724,457.937408 293.183075,457.017792 292.497620,456.081238 
	C284.296448,444.876282 280.867401,432.418427 283.075836,418.644348 
	C284.806213,407.851746 290.568787,399.900482 300.193451,394.451721 
	C304.365051,392.089996 305.063171,387.431915 303.035583,383.059875 
	C299.519531,375.478302 292.379730,373.814575 284.959412,379.590759 
	C270.393829,390.928955 262.498260,406.254913 262.264313,424.540771 
	C261.994568,445.625549 269.965240,463.483429 286.585876,477.207550 
	C298.894653,487.371307 311.154144,497.423584 327.468140,500.451416 
	C333.698608,501.607727 339.937592,502.770996 345.670593,498.719452 
	C352.620087,493.808197 352.433624,488.306885 345.046112,484.254883 
	C343.061523,483.166351 340.802277,482.268707 338.578003,481.976410 
	C321.316010,479.708008 306.734375,472.373627 294.589569,458.864899 
M743.639160,419.096893 
	C743.426758,423.212799 743.705750,427.424866 742.921936,431.428925 
	C737.928223,456.938843 717.980896,475.840302 695.778076,479.188599 
	C690.949036,479.916840 686.228027,481.719818 681.624329,483.467957 
	C678.064880,484.819580 675.459167,487.156433 675.888550,491.718323 
	C676.297791,496.065796 678.487061,498.502594 682.421204,500.097046 
	C690.502808,503.372375 698.423889,502.042725 706.225708,499.465057 
	C731.936340,490.970490 748.222168,472.557953 758.375671,448.339050 
	C766.378174,429.250946 764.901611,410.369019 753.525635,392.984222 
	C750.119568,387.779114 744.952759,383.309418 739.708496,379.838959 
	C734.258179,376.232178 727.898254,378.237061 725.349609,382.828186 
	C722.567261,387.840332 724.151917,392.625031 730.258789,396.585968 
	C738.187744,401.728607 742.257568,409.071838 743.639160,419.096893 
z"/>
<path fill="#FAFAFA" opacity="1.000000" stroke="none" 
	d="
M358.129211,731.711792 
	C367.170044,711.819824 376.614716,692.470520 384.959900,672.658081 
	C388.359528,664.587097 393.235474,661.239685 401.569946,660.999939 
	C431.841644,660.129272 462.109192,658.223938 492.372986,658.323486 
	C508.771027,658.377441 523.676575,654.963135 538.251648,648.169983 
	C563.174072,636.554077 588.054810,624.832458 613.220581,613.763550 
	C622.948303,609.484924 633.333862,606.625793 643.555969,603.576477 
	C649.618164,601.768005 655.339600,602.680969 659.701660,608.115967 
	C667.803040,618.210022 675.995667,628.231750 684.227478,638.219971 
	C697.855957,654.756226 711.545593,671.242065 725.515137,687.871460 
	C728.674316,691.561340 731.622620,695.059326 734.326904,698.736694 
	C735.204956,699.930725 735.444336,701.594360 735.468384,703.437622 
	C728.872681,704.276123 722.784363,704.720276 716.457275,704.945618 
	C695.588928,680.967041 674.959351,657.207275 653.874634,632.923157 
	C649.043335,644.570984 644.537354,654.954285 640.412537,665.486816 
	C633.467773,683.219727 626.764954,701.047363 619.641052,719.044434 
	C612.863708,720.413696 606.405579,721.573669 599.947510,722.733643 
	C603.116760,712.189148 605.800903,701.468323 609.557129,691.137207 
	C617.190552,670.141479 625.403137,649.356262 633.437622,628.325684 
	C633.014099,628.390076 632.100037,628.340698 631.352966,628.670044 
	C607.399902,639.230957 583.456360,649.813599 559.528015,660.430420 
	C552.902405,663.370056 546.356384,666.489563 539.721924,669.408386 
	C535.783325,671.141174 534.291870,673.732483 534.354065,678.257874 
	C534.637878,698.917175 534.498291,719.582336 534.497559,740.245422 
	C534.497375,746.619141 530.819153,750.926575 525.372437,750.991821 
	C519.856934,751.057861 516.315369,746.786926 516.290894,740.251587 
	C516.226074,722.925110 516.100159,705.598755 515.998596,688.272400 
	C515.996643,687.939148 516.004639,687.605530 515.992920,687.272644 
	C515.644836,677.374451 515.323181,676.857483 505.684235,677.057495 
	C478.037048,677.631287 450.393341,678.373474 422.749359,679.092285 
	C421.140289,679.134155 419.541046,679.554932 416.781128,679.975525 
	C423.761536,689.484436 430.189545,698.261108 436.638916,707.022095 
	C448.929443,723.717834 461.298676,740.356201 473.490875,757.123413 
	C477.332947,762.407166 477.552948,768.589478 474.658661,774.125244 
	C467.974335,786.910278 459.283234,798.594360 447.764252,807.111328 
	C440.875977,812.204529 431.865997,814.959167 423.401154,817.265808 
	C410.363373,820.818542 396.722565,822.516418 383.542786,818.752197 
	C375.462799,816.444458 367.828888,812.043152 360.538116,807.674927 
	C354.887482,804.289429 350.007416,799.583801 344.913147,795.311951 
	C337.616669,789.193359 336.083130,782.967896 339.833862,774.167908 
	C345.831207,760.097046 351.996460,746.097717 358.129211,731.711792 
M421.041534,720.437317 
	C413.318146,709.931763 405.594788,699.426208 397.776550,688.791565 
	C384.692139,718.923584 371.777496,748.664673 358.585419,779.044556 
	C391.478943,774.997742 423.714935,771.031860 457.094421,766.925232 
	C444.603973,750.789795 433.062836,735.880615 421.041534,720.437317 
z"/>
<path fill="#473890" opacity="1.000000" stroke="none" 
	d="
M533.365906,828.741577 
	C546.101562,824.578125 559.487549,821.750671 571.421814,815.941162 
	C589.766785,807.010925 607.072449,795.956482 624.944763,786.029663 
	C626.938110,784.922546 629.868591,784.645935 632.157043,785.079346 
	C640.722229,786.701172 649.201172,788.778198 658.582153,790.879395 
	C655.788269,793.354248 653.434448,795.560913 650.955444,797.616455 
	C625.575439,818.660950 600.086853,839.565002 571.847961,856.785583 
	C558.548096,864.896179 544.531921,871.356934 529.062988,873.961304 
	C511.223389,876.964722 494.031128,874.489990 477.357117,867.429382 
	C459.578522,859.901062 443.936829,849.090027 428.039551,836.739624 
	C431.632721,835.438904 434.599579,834.689087 437.261566,833.338440 
	C444.363007,829.735229 451.533966,826.194458 458.271698,821.980286 
	C461.678070,819.849854 464.416412,819.850403 468.018585,820.937195 
	C477.687439,823.854431 487.485718,826.342651 497.737518,829.461853 
	C501.147736,829.974670 504.052979,830.026978 506.958252,830.079285 
	C510.018402,830.036865 513.078552,829.994507 516.887695,830.295898 
	C522.879761,830.006897 528.122803,829.374207 533.365906,828.741577 
z"/>
<path fill="#F1CE3B" opacity="1.000000" stroke="none" 
	d="
M599.634277,722.907654 
	C606.405579,721.573669 612.863708,720.413696 619.917419,719.147827 
	C620.702759,719.093262 620.892456,719.144531 621.390625,719.443237 
	C622.343750,719.796509 623.009033,720.063538 623.630188,719.984375 
	C634.012146,718.661133 644.389465,717.301147 654.757141,715.871216 
	C654.905212,715.850830 654.915955,714.835022 655.403870,714.166443 
	C660.223877,713.425781 664.630859,712.802429 669.333252,712.426758 
	C674.814941,712.115906 680.000732,711.553589 685.187439,711.000000 
	C694.478088,710.008362 703.775330,709.072021 713.051880,707.962646 
	C714.077454,707.840027 714.986267,706.741028 716.078735,705.939636 
	C716.463501,705.650696 716.626160,705.444031 716.696106,705.164429 
	C722.784363,704.720276 728.872681,704.276123 735.408447,703.810364 
	C737.298279,717.449341 730.278015,727.592346 721.604980,736.765686 
	C717.079895,741.551758 711.664246,745.495911 706.140381,749.679016 
	C705.134827,750.093262 704.639771,750.648743 704.144653,751.204285 
	C704.144653,751.204285 704.090759,751.095093 703.796753,751.100281 
	C702.698242,751.805786 701.893799,752.506104 701.089355,753.206482 
	C701.089355,753.206482 701.078552,753.103821 700.738403,753.078918 
	C697.281555,754.762756 694.164856,756.471497 691.048218,758.180237 
	C691.048218,758.180237 691.041626,758.077759 690.768921,758.078918 
	C690.014038,758.442932 689.531921,758.805786 689.049805,759.168640 
	C689.049805,759.168640 689.045166,759.073792 688.733398,759.053589 
	C687.627197,759.410156 686.832825,759.786865 686.038452,760.163635 
	C686.038452,760.163635 686.036926,760.066589 685.649597,760.046021 
	C684.275818,760.057983 683.242676,759.909729 682.310181,760.151001 
	C672.600830,762.662354 662.850586,762.516174 652.986633,761.123718 
	C649.062317,760.569763 645.010010,760.922913 641.015930,760.863037 
	C627.225586,757.285278 616.899353,748.119629 606.657532,739.042542 
	C603.086243,735.877319 600.537537,731.472534 597.937195,727.370544 
	C597.422913,726.559326 598.810486,724.542480 599.634277,722.907654 
z"/>
<path fill="#4E3EA1" opacity="1.000000" stroke="none" 
	d="
M530.921631,145.642181 
	C522.486877,145.712280 513.746216,144.695511 505.160919,145.448975 
	C496.710876,146.190567 488.391449,148.609985 480.066925,150.520691 
	C475.156830,151.647705 470.348175,153.216766 465.262634,154.329010 
	C486.227783,145.991852 507.686096,139.879990 530.921631,145.642181 
z"/>
<path fill="#503FA2" opacity="1.000000" stroke="none" 
	d="
M158.037781,468.451660 
	C158.049210,471.903778 158.287460,475.786804 157.833267,479.587067 
	C155.971542,495.163727 156.500702,510.531647 161.013840,525.658813 
	C161.465622,527.173157 161.444443,528.828552 161.393158,530.676331 
	C154.155060,510.542603 153.135300,489.843689 158.037781,468.451660 
z"/>
<path fill="#F2E342" opacity="1.000000" stroke="none" 
	d="
M641.404053,760.978333 
	C645.010010,760.922913 649.062317,760.569763 652.986633,761.123718 
	C662.850586,762.516174 672.600830,762.662354 682.310181,760.151001 
	C683.242676,759.909729 684.275818,760.057983 685.697266,760.054993 
	C680.010315,761.358826 673.891052,763.647522 667.765625,763.664062 
	C659.110168,763.687378 650.450195,762.031616 641.404053,760.978333 
z"/>
<path fill="#5442AC" opacity="1.000000" stroke="none" 
	d="
M532.872192,828.714111 
	C528.122803,829.374207 522.879761,830.006897 517.342163,830.361267 
	C522.157959,829.617493 527.268188,829.152100 532.872192,828.714111 
z"/>
<path fill="#4E3EA1" opacity="1.000000" stroke="none" 
	d="
M543.593567,147.981110 
	C540.154846,147.608871 536.353088,147.112671 532.298584,146.357025 
	C535.773987,146.684097 539.502319,147.270630 543.593567,147.981110 
z"/>
<path fill="#F2E342" opacity="1.000000" stroke="none" 
	d="
M691.422852,758.125122 
	C694.164856,756.471497 697.281555,754.762756 700.788696,753.090454 
	C698.051941,754.774658 694.924683,756.422363 691.422852,758.125122 
z"/>
<path fill="#5442AC" opacity="1.000000" stroke="none" 
	d="
M506.554291,830.026733 
	C504.052979,830.026978 501.147736,829.974670 498.144379,829.560669 
	C500.747650,829.457336 503.448975,829.715820 506.554291,830.026733 
z"/>
<path fill="#F2E342" opacity="1.000000" stroke="none" 
	d="
M704.420776,751.131714 
	C704.639771,750.648743 705.134827,750.093262 705.812622,749.766602 
	C705.562561,750.350098 705.129761,750.704651 704.420776,751.131714 
z"/>
<path fill="#F2E342" opacity="1.000000" stroke="none" 
	d="
M701.400269,753.124878 
	C701.893799,752.506104 702.698242,751.805786 703.851074,751.127625 
	C703.370117,751.781006 702.540649,752.412170 701.400269,753.124878 
z"/>
<path fill="#F2E342" opacity="1.000000" stroke="none" 
	d="
M686.390503,760.113953 
	C686.832825,759.786865 687.627197,759.410156 688.780029,759.062500 
	C688.339844,759.415710 687.541199,759.739990 686.390503,760.113953 
z"/>
<path fill="#F2E342" opacity="1.000000" stroke="none" 
	d="
M689.366455,759.109497 
	C689.531921,758.805786 690.014038,758.442932 690.819580,758.086792 
	C690.656433,758.412476 690.169739,758.731445 689.366455,759.109497 
z"/>
<path fill="#5241A8" opacity="1.000000" stroke="none" 
	d="
M361.060425,546.311340 
	C366.894226,552.359680 365.162781,559.950989 363.736603,567.156372 
	C362.231354,574.761353 359.722076,582.167725 357.356445,589.869141 
	C358.548981,583.698975 360.066437,577.327332 361.516418,570.940430 
	C363.357117,562.832520 364.179321,554.731445 361.060425,546.311340 
z"/>
<path fill="#5442AC" opacity="1.000000" stroke="none" 
	d="
M239.357941,419.176331 
	C239.927887,426.737976 240.130798,434.413086 240.211670,442.540314 
	C237.770813,435.182068 236.903030,427.304443 239.357941,419.176331 
z"/>
<path fill="#5945B8" opacity="1.000000" stroke="none" 
	d="
M526.820557,206.397141 
	C517.917664,206.757324 508.905914,206.747025 499.486389,206.735229 
	C499.939850,206.161545 500.794098,205.105469 501.663483,205.092850 
	C509.470551,204.979630 517.280518,205.030777 525.088867,205.107300 
	C525.632751,205.112625 526.170837,205.706482 526.820557,206.397141 
z"/>
<path fill="#5442AC" opacity="1.000000" stroke="none" 
	d="
M242.680466,453.255005 
	C243.703583,455.424103 244.468613,457.816833 245.162170,460.595551 
	C244.201248,458.480560 243.311813,455.979645 242.680466,453.255005 
z"/>
<path fill="#5241A8" opacity="1.000000" stroke="none" 
	d="
M354.803772,596.158691 
	C354.479370,598.115601 353.822021,600.197937 353.027557,602.614624 
	C353.417236,600.727356 353.944031,598.505737 354.803772,596.158691 
z"/>
<path fill="#5442AC" opacity="1.000000" stroke="none" 
	d="
M240.043762,443.354248 
	C240.765564,445.352753 241.469910,447.763275 242.242645,450.566803 
	C241.549469,448.561981 240.787903,446.164124 240.043762,443.354248 
z"/>
<path fill="#5442AC" opacity="1.000000" stroke="none" 
	d="
M245.052689,461.297791 
	C245.761169,462.116608 246.453735,463.304382 247.197815,464.866150 
	C246.511826,464.049011 245.774292,462.857880 245.052689,461.297791 
z"/>
<path fill="#5241A8" opacity="1.000000" stroke="none" 
	d="
M356.830902,590.206116 
	C356.949768,590.899841 356.777191,591.784180 356.332031,592.873291 
	C356.219513,592.184326 356.379486,591.290527 356.830902,590.206116 
z"/>
<path fill="#5241A8" opacity="1.000000" stroke="none" 
	d="
M355.831421,593.203369 
	C355.945709,593.894714 355.766235,594.774780 355.322235,595.868347 
	C355.217682,595.185242 355.377655,594.288696 355.831421,593.203369 
z"/>
<path fill="#5241A8" opacity="1.000000" stroke="none" 
	d="
M360.813690,545.112305 
	C360.976074,545.009888 361.178497,545.443848 361.177490,545.683228 
	C361.001404,545.686584 360.826355,545.450623 360.813690,545.112305 
z"/>
<path fill="#FAFAFA" opacity="1.000000" stroke="none" 
	d="
M640.945007,293.990997 
	C662.440796,302.514160 678.570984,316.827118 690.004333,336.334564 
	C701.056519,355.191803 703.713196,375.656128 701.307861,397.190491 
	C698.974548,418.080536 692.358765,437.242706 679.067627,453.540924 
	C672.920898,461.078247 665.798401,468.183563 657.950012,473.873016 
	C649.086609,480.298157 645.544983,488.324463 644.952820,498.688354 
	C642.284790,545.390625 620.043091,579.646423 579.084534,602.053162 
	C556.243042,614.548767 531.982483,619.311279 505.998230,618.315430 
	C475.102997,617.131287 448.111206,606.537903 424.877625,586.755188 
	C402.270691,567.505981 387.288635,543.457458 382.967743,513.494141 
	C381.835297,505.641357 380.390594,497.830017 378.935730,490.028259 
	C377.415131,481.873932 371.505981,476.853912 365.383423,472.254211 
	C342.168945,454.813751 329.549408,431.336121 324.875275,403.013062 
	C321.075989,379.991425 323.599457,357.835541 335.155121,337.577728 
	C349.710052,312.062042 371.074768,295.309967 400.756653,289.894257 
	C435.763000,283.507050 466.567291,292.914917 494.767822,313.299194 
	C499.605530,316.796082 504.655060,320.058868 509.138184,323.967224 
	C512.303650,326.726837 514.466797,326.236450 517.216553,323.725616 
	C529.035767,312.933258 542.375183,304.426422 556.804932,297.550385 
	C575.955627,288.424744 596.154358,286.215973 616.918274,288.854553 
	C624.884583,289.866852 632.681396,292.212677 640.945007,293.990997 
M594.473877,567.980591 
	C599.072266,562.524841 604.012695,557.318420 608.204895,551.566650 
	C620.821533,534.256165 624.551147,513.954041 626.971558,493.317688 
	C628.542786,479.922058 633.567810,468.555908 644.616821,460.188538 
	C666.045166,443.960846 679.296814,423.134521 682.479858,395.838226 
	C686.108459,364.721252 676.014526,339.684296 651.458008,320.656860 
	C631.249878,304.998688 607.801086,304.950928 584.046448,308.595306 
	C569.184814,310.875336 556.613831,318.639496 544.464355,327.035431 
	C536.837646,332.305847 529.258423,337.646179 521.579956,342.839966 
	C516.517395,346.264282 511.087524,346.707977 505.803467,343.503113 
	C500.868286,340.509888 495.995392,337.352295 491.409882,333.854401 
	C466.656189,314.971954 439.922058,302.875305 407.706055,307.937592 
	C388.787506,310.910339 372.659332,318.947327 360.386566,333.677307 
	C346.011871,350.930084 340.807526,370.926025 342.807007,393.354279 
	C345.036682,418.363922 355.450012,438.855804 374.840820,454.404663 
	C388.242584,465.151123 397.206818,477.677551 399.504944,495.200684 
	C401.146820,507.719543 403.470581,520.471497 407.836456,532.249695 
	C420.603302,566.691833 463.474274,598.129883 507.250214,600.045410 
	C540.594543,601.504517 569.139343,590.211731 594.473877,567.980591 
z"/>
<path fill="#FAFAFA" opacity="1.000000" stroke="none" 
	d="
M294.809357,459.146301 
	C306.734375,472.373627 321.316010,479.708008 338.578003,481.976410 
	C340.802277,482.268707 343.061523,483.166351 345.046112,484.254883 
	C352.433624,488.306885 352.620087,493.808197 345.670593,498.719452 
	C339.937592,502.770996 333.698608,501.607727 327.468140,500.451416 
	C311.154144,497.423584 298.894653,487.371307 286.585876,477.207550 
	C269.965240,463.483429 261.994568,445.625549 262.264313,424.540771 
	C262.498260,406.254913 270.393829,390.928955 284.959412,379.590759 
	C292.379730,373.814575 299.519531,375.478302 303.035583,383.059875 
	C305.063171,387.431915 304.365051,392.089996 300.193451,394.451721 
	C290.568787,399.900482 284.806213,407.851746 283.075836,418.644348 
	C280.867401,432.418427 284.296448,444.876282 292.497620,456.081238 
	C293.183075,457.017792 293.891724,457.937408 294.809357,459.146301 
z"/>
<path fill="#FAFAFA" opacity="1.000000" stroke="none" 
	d="
M743.466431,418.695679 
	C742.257568,409.071838 738.187744,401.728607 730.258789,396.585968 
	C724.151917,392.625031 722.567261,387.840332 725.349609,382.828186 
	C727.898254,378.237061 734.258179,376.232178 739.708496,379.838959 
	C744.952759,383.309418 750.119568,387.779114 753.525635,392.984222 
	C764.901611,410.369019 766.378174,429.250946 758.375671,448.339050 
	C748.222168,472.557953 731.936340,490.970490 706.225708,499.465057 
	C698.423889,502.042725 690.502808,503.372375 682.421204,500.097046 
	C678.487061,498.502594 676.297791,496.065796 675.888550,491.718323 
	C675.459167,487.156433 678.064880,484.819580 681.624329,483.467957 
	C686.228027,481.719818 690.949036,479.916840 695.778076,479.188599 
	C717.980896,475.840302 737.928223,456.938843 742.921936,431.428925 
	C743.705750,427.424866 743.426758,423.212799 743.466431,418.695679 
z"/>
<path fill="#060606" opacity="1.000000" stroke="none" 
	d="
M421.281616,720.704407 
	C433.062836,735.880615 444.603973,750.789795 457.094421,766.925232 
	C423.714935,771.031860 391.478943,774.997742 358.585419,779.044556 
	C371.777496,748.664673 384.692139,718.923584 397.776550,688.791565 
	C405.594788,699.426208 413.318146,709.931763 421.281616,720.704407 
z"/>
<path fill="#070606" opacity="1.000000" stroke="none" 
	d="
M621.082214,719.195862 
	C620.892456,719.144531 620.702759,719.093262 620.236694,718.938538 
	C626.764954,701.047363 633.467773,683.219727 640.412537,665.486816 
	C644.537354,654.954285 649.043335,644.570984 653.874634,632.923157 
	C674.959351,657.207275 695.588928,680.967041 716.457275,704.945618 
	C716.626160,705.444031 716.463501,705.650696 715.674744,705.909424 
	C710.464844,706.692871 705.792908,707.384949 701.111084,708.003052 
	C690.422546,709.414368 679.729187,710.789368 669.037781,712.179138 
	C664.630859,712.802429 660.223877,713.425781 655.001221,714.164917 
	C643.151062,715.919128 632.116638,717.557495 621.082214,719.195862 
z"/>
<path fill="#FBEF44" opacity="1.000000" stroke="none" 
	d="
M669.333252,712.426758 
	C679.729187,710.789368 690.422546,709.414368 701.111084,708.003052 
	C705.792908,707.384949 710.464844,706.692871 715.545288,706.064575 
	C714.986267,706.741028 714.077454,707.840027 713.051880,707.962646 
	C703.775330,709.072021 694.478088,710.008362 685.187439,711.000000 
	C680.000732,711.553589 674.814941,712.115906 669.333252,712.426758 
z"/>
<path fill="#F6E942" opacity="1.000000" stroke="none" 
	d="
M621.390625,719.443237 
	C632.116638,717.557495 643.151062,715.919128 654.588135,714.282227 
	C654.915955,714.835022 654.905212,715.850830 654.757141,715.871216 
	C644.389465,717.301147 634.012146,718.661133 623.630188,719.984375 
	C623.009033,720.063538 622.343750,719.796509 621.390625,719.443237 
z"/>
<path fill="#060606" opacity="1.000000" stroke="none" 
	d="
M594.215698,568.226440 
	C569.139343,590.211731 540.594543,601.504517 507.250214,600.045410 
	C463.474274,598.129883 420.603302,566.691833 407.836456,532.249695 
	C403.470581,520.471497 401.146820,507.719543 399.504944,495.200684 
	C397.206818,477.677551 388.242584,465.151123 374.840820,454.404663 
	C355.450012,438.855804 345.036682,418.363922 342.807007,393.354279 
	C340.807526,370.926025 346.011871,350.930084 360.386566,333.677307 
	C372.659332,318.947327 388.787506,310.910339 407.706055,307.937592 
	C439.922058,302.875305 466.656189,314.971954 491.409882,333.854401 
	C495.995392,337.352295 500.868286,340.509888 505.803467,343.503113 
	C511.087524,346.707977 516.517395,346.264282 521.579956,342.839966 
	C529.258423,337.646179 536.837646,332.305847 544.464355,327.035431 
	C556.613831,318.639496 569.184814,310.875336 584.046448,308.595306 
	C607.801086,304.950928 631.249878,304.998688 651.458008,320.656860 
	C676.014526,339.684296 686.108459,364.721252 682.479858,395.838226 
	C679.296814,423.134521 666.045166,443.960846 644.616821,460.188538 
	C633.567810,468.555908 628.542786,479.922058 626.971558,493.317688 
	C624.551147,513.954041 620.821533,534.256165 608.204895,551.566650 
	C604.012695,557.318420 599.072266,562.524841 594.215698,568.226440 
M438.456238,433.236542 
	C448.164856,435.372986 457.954010,430.228119 459.858826,421.988037 
	C461.663940,414.179199 455.215454,403.735504 447.117188,401.352203 
	C438.537384,398.827179 428.718719,403.737793 426.106750,411.859344 
	C423.327667,420.500427 429.878967,431.642944 438.456238,433.236542 
M575.601501,432.181702 
	C576.681152,432.567108 577.738525,433.038879 578.843994,433.324097 
	C586.723694,435.356842 594.012817,432.253265 597.211243,425.543152 
	C600.854431,417.899902 598.853455,408.834320 592.497498,404.187195 
	C585.952942,399.402161 576.833557,399.909607 571.101013,405.377869 
	C562.903687,413.197266 564.428894,423.928864 575.601501,432.181702 
M527.492493,494.719513 
	C533.682983,500.954193 544.947388,499.130859 548.620605,491.299561 
	C551.038696,486.144196 548.537842,479.980835 543.163879,477.851532 
	C538.457031,475.986542 533.191895,477.110718 529.599854,480.959900 
	C526.065674,484.747192 524.606628,489.037506 527.492493,494.719513 
M488.960815,478.040283 
	C486.683411,478.230774 484.263123,477.995361 482.158691,478.701355 
	C477.902313,480.129303 475.915161,483.535706 476.260437,487.943512 
	C476.619751,492.529907 481.624512,497.176971 486.576813,497.976776 
	C492.213531,498.887115 496.588684,497.096649 498.464142,493.112091 
	C500.282043,489.249878 498.813354,484.629547 494.392273,480.977844 
	C493.020416,479.844727 491.313782,479.116913 488.960815,478.040283 
z"/>
<path fill="#FAFAFA" opacity="1.000000" stroke="none" 
	d="
M438.063141,433.144440 
	C429.878967,431.642944 423.327667,420.500427 426.106750,411.859344 
	C428.718719,403.737793 438.537384,398.827179 447.117188,401.352203 
	C455.215454,403.735504 461.663940,414.179199 459.858826,421.988037 
	C457.954010,430.228119 448.164856,435.372986 438.063141,433.144440 
z"/>
<path fill="#FAFAFA" opacity="1.000000" stroke="none" 
	d="
M575.238281,432.057251 
	C564.428894,423.928864 562.903687,413.197266 571.101013,405.377869 
	C576.833557,399.909607 585.952942,399.402161 592.497498,404.187195 
	C598.853455,408.834320 600.854431,417.899902 597.211243,425.543152 
	C594.012817,432.253265 586.723694,435.356842 578.843994,433.324097 
	C577.738525,433.038879 576.681152,432.567108 575.238281,432.057251 
z"/>
<path fill="#FAFAFA" opacity="1.000000" stroke="none" 
	d="
M527.298279,494.374084 
	C524.606628,489.037506 526.065674,484.747192 529.599854,480.959900 
	C533.191895,477.110718 538.457031,475.986542 543.163879,477.851532 
	C548.537842,479.980835 551.038696,486.144196 548.620605,491.299561 
	C544.947388,499.130859 533.682983,500.954193 527.298279,494.374084 
z"/>
<path fill="#F9F9F9" opacity="1.000000" stroke="none" 
	d="
M489.360596,478.121918 
	C491.313782,479.116913 493.020416,479.844727 494.392273,480.977844 
	C498.813354,484.629547 500.282043,489.249878 498.464142,493.112091 
	C496.588684,497.096649 492.213531,498.887115 486.576813,497.976776 
	C481.624512,497.176971 476.619751,492.529907 476.260437,487.943512 
	C475.915161,483.535706 477.902313,480.129303 482.158691,478.701355 
	C484.263123,477.995361 486.683411,478.230774 489.360596,478.121918 
z"/>
</svg>